<svg id="Capa_1" data-name="Capa 1" xmlns="http://www.w3.org/2000/svg" viewBox="0 0 263.84 365.44"><defs><style>.cls-1{fill:#d371c0;}</style></defs><title>question-sign</title><path class="cls-1" d="M213,274.07H144.47a11.72,11.72,0,0,0-11.42,11.43V354a11.71,11.71,0,0,0,11.42,11.42H213A11.72,11.72,0,0,0,224.42,354V285.5A11.74,11.74,0,0,0,213,274.07Z" transform="translate(-50.8 0)"/><path class="cls-1" d="M302.93,69a118.33,118.33,0,0,0-30.26-36.41A154.94,154.94,0,0,0,231,8.85,127.81,127.81,0,0,0,185,0Q98.23,0,52.54,76a11.28,11.28,0,0,0-1.57,8,11.12,11.12,0,0,0,4.43,7.13l46.82,35.69a13.72,13.72,0,0,0,7.14,2.29q5.15,0,8.85-4.57,20.56-25.7,30.55-32.84Q161,83.38,179.6,83.37q17.42,0,30.69,9.13t13.27,21.13q0,13.41-7.14,21.7t-24,16q-22.26,10-40.82,31T133.06,227v12.85a21.45,21.45,0,0,0,3,10.71q3,5.28,7.29,5.28h68.52q4.56,0,8-4.43a14.94,14.94,0,0,0,3.43-9.27q0-7.14,7.84-19.13a56,56,0,0,1,19.57-18.56q11.12-6.28,17.41-10.14a144,144,0,0,0,16.42-12.42,81.89,81.89,0,0,0,15.7-17q5.56-8.42,10-21.84a91.28,91.28,0,0,0,4.43-28.84A93.51,93.51,0,0,0,302.93,69Z" transform="translate(-50.8 0)"/></svg>